# xmcd
#
# Track frame offsets:
#	150
#	73720
#	112607
#	136109
#	163551
#
# Disc length: 2378 seconds
#
# Revision: 0
# Processed by: cddbd v1.5.1PL0 Copyright (c) Steve Scherf et al.
# Submitted via: dBpowerAMP V4.0
#
DISCID=35094805
DTITLE=Rev Gary Davis - Live At Cambridge 1971
DYEAR=1999
DGENRE=blues
TTITLE0=Let Us Get Together
TTITLE1=There,s Destruction In This Land
TTITLE2=Samson And Delilah
TTITLE3=You Got To Move
TTITLE4=Pure Religion
EXTD=
EXTT0=
EXTT1=
EXTT2=
EXTT3=
EXTT4=
PLAYORDER=
